<?xml version="1.0" standalone="no"?>
<!DOCTYPE svg PUBLIC "-//W3C//DTD SVG 20010904//EN"
 "http://www.w3.org/TR/2001/REC-SVG-20010904/DTD/svg10.dtd">
<svg version="1.0" xmlns="http://www.w3.org/2000/svg"
 width="512.000000pt" height="512.000000pt" viewBox="0 0 512.000000 512.000000"
 preserveAspectRatio="xMidYMid meet">
<metadata>
Created by potrace 1.16, written by Peter Selinger 2001-2019
</metadata>
<g transform="translate(0.000000,512.000000) scale(0.100000,-0.100000)"
fill="#000000" stroke="none">
<path d="M1107 5106 c-132 -49 -211 -163 -211 -306 -1 -66 4 -85 32 -143 56
-114 159 -177 287 -177 158 0 285 103 316 258 30 145 -39 284 -174 354 -54 28
-192 36 -250 14z"/>
<path d="M2183 4953 c-27 -5 -72 -49 -78 -77 -3 -12 -4 -220 -3 -463 l3 -442
75 46 c41 25 91 51 110 58 l35 12 3 322 2 321 1115 0 1115 0 0 -795 0 -795
-1115 0 -1115 0 0 126 c0 147 13 142 -131 52 l-99 -61 0 -135 c0 -105 3 -140
16 -161 35 -60 -49 -56 1289 -59 677 -2 1249 0 1273 3 27 4 55 17 75 35 l32
28 0 955 c0 767 -3 959 -13 978 -30 57 50 54 -1312 55 -690 1 -1265 -1 -1277
-3z"/>
<path d="M690 4366 c-105 -35 -192 -115 -232 -214 l-23 -57 -3 -630 c-2 -616
-2 -631 18 -663 61 -100 213 -97 273 5 17 31 19 69 24 622 4 325 9 595 14 602
4 7 14 9 23 6 14 -6 16 -83 16 -815 l0 -809 81 -11 c91 -13 182 -50 249 -100
l45 -34 3 316 2 316 35 0 35 0 0 -356 0 -356 35 -72 c66 -138 70 -287 10 -422
-14 -31 -25 -60 -25 -65 0 -5 15 -9 33 -9 17 0 50 -5 72 -10 33 -7 43 -6 60
10 28 26 152 90 176 90 19 0 19 23 21 1163 3 1154 3 1162 23 1162 19 0 20 -8
25 -316 5 -314 5 -316 29 -351 41 -60 106 -85 172 -68 30 8 572 336 618 373 8
7 23 32 34 56 52 118 -48 241 -176 217 -18 -3 -104 -51 -192 -105 l-160 -99
-6 176 c-3 97 -11 192 -17 210 -30 90 -101 171 -192 218 -51 27 -65 29 -186
32 l-131 4 -78 -196 c-75 -186 -97 -232 -75 -155 16 56 12 88 -22 151 l-32 60
28 54 c41 78 35 84 -79 84 -115 0 -120 -6 -76 -83 l31 -54 -36 -67 c-36 -67
-36 -68 -24 -128 6 -33 10 -61 8 -63 -2 -2 -37 85 -79 193 l-75 197 -119 2
c-70 1 -135 -4 -155 -11z"/>
<path d="M2770 4224 c-102 -80 -193 -152 -204 -159 -17 -13 -16 -15 17 -45 20
-17 46 -47 57 -66 12 -19 26 -34 31 -34 14 0 377 288 394 313 41 58 -1 137
-72 137 -34 0 -58 -16 -223 -146z"/>
<path d="M745 2226 c-173 -43 -277 -200 -254 -383 9 -71 42 -135 100 -193 131
-131 356 -126 485 12 69 74 89 125 89 233 0 108 -20 159 -89 233 -52 55 -111
88 -186 102 -64 12 -81 12 -145 -4z"/>
<path d="M2565 2226 c-68 -17 -110 -40 -159 -90 -63 -62 -90 -126 -94 -220 -5
-93 8 -142 54 -212 64 -96 161 -146 284 -147 98 -1 180 34 246 105 69 74 89
125 89 233 0 110 -24 170 -93 238 -57 55 -110 83 -181 97 -65 12 -82 12 -146
-4z"/>
<path d="M4164 2210 c-75 -30 -137 -89 -176 -168 -29 -59 -33 -76 -33 -152 0
-71 4 -94 26 -141 105 -224 406 -267 569 -82 68 77 99 207 74 308 -21 90 -92
178 -179 223 -70 36 -206 42 -281 12z"/>
<path d="M1693 1560 c-116 -24 -214 -105 -254 -207 -27 -71 -29 -187 -5 -251
35 -95 124 -181 221 -212 21 -7 72 -13 113 -12 185 2 332 149 334 334 1 87
-13 135 -58 204 -73 110 -221 171 -351 144z"/>
<path d="M3335 1547 c-70 -19 -111 -42 -160 -93 -164 -168 -115 -455 94 -552
258 -120 541 93 491 370 -15 80 -40 129 -96 185 -83 83 -216 119 -329 90z"/>
<path d="M247 1426 c-74 -31 -141 -86 -182 -150 -56 -89 -58 -103 -63 -358
l-4 -238 165 0 164 0 7 61 c3 34 6 124 6 201 0 119 2 140 16 145 37 14 44 -22
44 -219 l0 -188 233 0 233 0 17 29 c28 48 133 138 200 171 69 34 156 60 201
60 33 0 33 0 -11 100 -25 59 -28 76 -27 180 0 95 4 125 22 170 12 30 22 56 22
58 0 1 -222 2 -492 2 l-493 0 -58 -24z"/>
<path d="M2210 1443 c0 -5 10 -33 22 -63 18 -45 22 -75 22 -160 0 -104 -6
-130 -58 -252 -6 -14 1 -18 41 -23 121 -16 218 -57 306 -128 l53 -44 50 40
c89 71 207 117 301 117 24 0 43 2 43 4 0 2 -11 26 -25 53 -62 120 -70 265 -22
396 l25 67 -379 0 c-209 0 -379 -3 -379 -7z"/>
<path d="M3880 1443 c0 -4 10 -33 21 -63 26 -68 36 -196 20 -270 -6 -30 -23
-79 -37 -109 -29 -63 -27 -66 55 -75 34 -4 89 -23 141 -48 68 -32 100 -56 162
-119 l77 -79 200 0 200 0 3 195 c2 155 6 198 17 204 36 22 41 3 41 -148 0 -80
3 -170 6 -198 l7 -53 163 0 164 0 0 208 c0 218 -9 281 -50 361 -30 60 -108
131 -180 165 l-65 31 -472 3 c-260 2 -473 -1 -473 -5z"/>
<path d="M1243 765 c-80 -22 -132 -52 -188 -109 -58 -60 -91 -121 -105 -196
-5 -29 -10 -144 -10 -256 l0 -204 170 0 170 0 0 200 c0 175 2 201 16 207 9 3
20 0 25 -8 5 -8 9 -101 9 -206 l0 -193 435 0 435 0 2 203 c3 201 3 202 26 205
l22 3 0 -159 c0 -88 3 -180 6 -206 l7 -46 328 0 329 0 0 195 c0 170 2 196 16
202 9 3 20 0 25 -8 5 -8 9 -98 9 -201 l0 -188 435 0 435 0 2 198 c3 192 3 197
24 200 21 3 22 0 29 -197 l7 -201 165 0 165 0 -4 238 -3 237 -31 65 c-41 86
-108 153 -192 193 l-67 32 -490 3 c-520 4 -558 1 -645 -43 -100 -51 -165 -130
-200 -242 l-17 -56 -6 42 c-12 94 -101 217 -188 262 -92 46 -125 49 -624 48
-372 0 -481 -3 -522 -14z"/>
</g>
</svg>
